<mxfile host="app.diagrams.net" agent="Mozilla/5.0 (Windows NT 10.0; Win64; x64) AppleWebKit/537.36 (KHTML, like Gecko) Chrome/132.0.0.0 Safari/537.36" version="26.0.13">
  <diagram id="C5RBs43oDa-KdzZeNtuy" name="Page-1">
    <mxGraphModel dx="1764" dy="916" grid="1" gridSize="10" guides="1" tooltips="1" connect="1" arrows="1" fold="1" page="1" pageScale="1" pageWidth="827" pageHeight="1169" math="0" shadow="0">
      <root>
        <mxCell id="WIyWlLk6GJQsqaUBKTNV-0" />
        <mxCell id="WIyWlLk6GJQsqaUBKTNV-1" parent="WIyWlLk6GJQsqaUBKTNV-0" />
        <mxCell id="Uu99uthvuE6E15-0EjU5-3" style="edgeStyle=orthogonalEdgeStyle;rounded=0;orthogonalLoop=1;jettySize=auto;html=1;exitX=0.5;exitY=1;exitDx=0;exitDy=0;entryX=0.5;entryY=0;entryDx=0;entryDy=0;" edge="1" parent="WIyWlLk6GJQsqaUBKTNV-1" source="Uu99uthvuE6E15-0EjU5-0" target="Uu99uthvuE6E15-0EjU5-1">
          <mxGeometry relative="1" as="geometry" />
        </mxCell>
        <mxCell id="Uu99uthvuE6E15-0EjU5-0" value="Start" style="ellipse;whiteSpace=wrap;html=1;" vertex="1" parent="WIyWlLk6GJQsqaUBKTNV-1">
          <mxGeometry x="230" y="60" width="120" height="60" as="geometry" />
        </mxCell>
        <mxCell id="Uu99uthvuE6E15-0EjU5-5" value="" style="edgeStyle=orthogonalEdgeStyle;rounded=0;orthogonalLoop=1;jettySize=auto;html=1;" edge="1" parent="WIyWlLk6GJQsqaUBKTNV-1" source="Uu99uthvuE6E15-0EjU5-1" target="Uu99uthvuE6E15-0EjU5-4">
          <mxGeometry relative="1" as="geometry" />
        </mxCell>
        <mxCell id="Uu99uthvuE6E15-0EjU5-1" value="Enter username&lt;div&gt;and password&amp;nbsp;&lt;/div&gt;" style="shape=parallelogram;perimeter=parallelogramPerimeter;whiteSpace=wrap;html=1;fixedSize=1;" vertex="1" parent="WIyWlLk6GJQsqaUBKTNV-1">
          <mxGeometry x="230" y="190" width="120" height="60" as="geometry" />
        </mxCell>
        <mxCell id="Uu99uthvuE6E15-0EjU5-8" style="edgeStyle=orthogonalEdgeStyle;rounded=0;orthogonalLoop=1;jettySize=auto;html=1;entryX=0.5;entryY=0;entryDx=0;entryDy=0;" edge="1" parent="WIyWlLk6GJQsqaUBKTNV-1" source="Uu99uthvuE6E15-0EjU5-4" target="Uu99uthvuE6E15-0EjU5-7">
          <mxGeometry relative="1" as="geometry" />
        </mxCell>
        <mxCell id="Uu99uthvuE6E15-0EjU5-4" value="Is username&amp;nbsp;&lt;div&gt;and password&amp;nbsp;&lt;/div&gt;&lt;div&gt;valid?&lt;/div&gt;" style="rhombus;whiteSpace=wrap;html=1;" vertex="1" parent="WIyWlLk6GJQsqaUBKTNV-1">
          <mxGeometry x="230" y="320" width="120" height="80" as="geometry" />
        </mxCell>
        <mxCell id="Uu99uthvuE6E15-0EjU5-6" value="Yes" style="text;html=1;align=center;verticalAlign=middle;whiteSpace=wrap;rounded=0;" vertex="1" parent="WIyWlLk6GJQsqaUBKTNV-1">
          <mxGeometry x="280" y="410" width="60" height="30" as="geometry" />
        </mxCell>
        <mxCell id="Uu99uthvuE6E15-0EjU5-14" style="edgeStyle=orthogonalEdgeStyle;rounded=0;orthogonalLoop=1;jettySize=auto;html=1;exitX=0.5;exitY=1;exitDx=0;exitDy=0;entryX=0.5;entryY=0;entryDx=0;entryDy=0;" edge="1" parent="WIyWlLk6GJQsqaUBKTNV-1" source="Uu99uthvuE6E15-0EjU5-7" target="Uu99uthvuE6E15-0EjU5-13">
          <mxGeometry relative="1" as="geometry" />
        </mxCell>
        <mxCell id="Uu99uthvuE6E15-0EjU5-7" value="Hash the password&amp;nbsp;" style="shape=process;whiteSpace=wrap;html=1;backgroundOutline=1;" vertex="1" parent="WIyWlLk6GJQsqaUBKTNV-1">
          <mxGeometry x="230" y="450" width="120" height="60" as="geometry" />
        </mxCell>
        <mxCell id="Uu99uthvuE6E15-0EjU5-12" style="edgeStyle=orthogonalEdgeStyle;rounded=0;orthogonalLoop=1;jettySize=auto;html=1;entryX=1;entryY=0.25;entryDx=0;entryDy=0;exitX=0.5;exitY=0;exitDx=0;exitDy=0;" edge="1" parent="WIyWlLk6GJQsqaUBKTNV-1" source="Uu99uthvuE6E15-0EjU5-9" target="Uu99uthvuE6E15-0EjU5-1">
          <mxGeometry relative="1" as="geometry" />
        </mxCell>
        <mxCell id="Uu99uthvuE6E15-0EjU5-9" value="Output:&lt;div&gt;&amp;nbsp;&quot;Wrong login details&quot;&lt;/div&gt;" style="shape=parallelogram;perimeter=parallelogramPerimeter;whiteSpace=wrap;html=1;fixedSize=1;" vertex="1" parent="WIyWlLk6GJQsqaUBKTNV-1">
          <mxGeometry x="390" y="250" width="130" height="60" as="geometry" />
        </mxCell>
        <mxCell id="Uu99uthvuE6E15-0EjU5-10" style="edgeStyle=orthogonalEdgeStyle;rounded=0;orthogonalLoop=1;jettySize=auto;html=1;entryX=0.422;entryY=1.056;entryDx=0;entryDy=0;entryPerimeter=0;" edge="1" parent="WIyWlLk6GJQsqaUBKTNV-1" source="Uu99uthvuE6E15-0EjU5-4" target="Uu99uthvuE6E15-0EjU5-9">
          <mxGeometry relative="1" as="geometry" />
        </mxCell>
        <mxCell id="Uu99uthvuE6E15-0EjU5-11" value="No" style="text;html=1;align=center;verticalAlign=middle;whiteSpace=wrap;rounded=0;" vertex="1" parent="WIyWlLk6GJQsqaUBKTNV-1">
          <mxGeometry x="360" y="360" width="60" height="30" as="geometry" />
        </mxCell>
        <mxCell id="Uu99uthvuE6E15-0EjU5-16" value="" style="edgeStyle=orthogonalEdgeStyle;rounded=0;orthogonalLoop=1;jettySize=auto;html=1;" edge="1" parent="WIyWlLk6GJQsqaUBKTNV-1" source="Uu99uthvuE6E15-0EjU5-13" target="Uu99uthvuE6E15-0EjU5-15">
          <mxGeometry relative="1" as="geometry" />
        </mxCell>
        <mxCell id="Uu99uthvuE6E15-0EjU5-13" value="Search the database for the&amp;nbsp;&lt;div&gt;entered username and the hashed password&amp;nbsp;&lt;/div&gt;" style="shape=process;whiteSpace=wrap;html=1;backgroundOutline=1;" vertex="1" parent="WIyWlLk6GJQsqaUBKTNV-1">
          <mxGeometry x="230" y="555" width="120" height="95" as="geometry" />
        </mxCell>
        <mxCell id="Uu99uthvuE6E15-0EjU5-20" style="edgeStyle=orthogonalEdgeStyle;rounded=0;orthogonalLoop=1;jettySize=auto;html=1;entryX=0.5;entryY=0;entryDx=0;entryDy=0;" edge="1" parent="WIyWlLk6GJQsqaUBKTNV-1" source="Uu99uthvuE6E15-0EjU5-15" target="Uu99uthvuE6E15-0EjU5-19">
          <mxGeometry relative="1" as="geometry" />
        </mxCell>
        <mxCell id="Uu99uthvuE6E15-0EjU5-21" style="edgeStyle=orthogonalEdgeStyle;rounded=0;orthogonalLoop=1;jettySize=auto;html=1;entryX=0;entryY=0.5;entryDx=0;entryDy=0;" edge="1" parent="WIyWlLk6GJQsqaUBKTNV-1" source="Uu99uthvuE6E15-0EjU5-15" target="Uu99uthvuE6E15-0EjU5-18">
          <mxGeometry relative="1" as="geometry" />
        </mxCell>
        <mxCell id="Uu99uthvuE6E15-0EjU5-15" value="Is the username&amp;nbsp;&lt;div&gt;admin?&lt;/div&gt;" style="rhombus;whiteSpace=wrap;html=1;" vertex="1" parent="WIyWlLk6GJQsqaUBKTNV-1">
          <mxGeometry x="230" y="720" width="120" height="80" as="geometry" />
        </mxCell>
        <mxCell id="Uu99uthvuE6E15-0EjU5-17" value="If found in database" style="text;html=1;align=center;verticalAlign=middle;whiteSpace=wrap;rounded=0;" vertex="1" parent="WIyWlLk6GJQsqaUBKTNV-1">
          <mxGeometry x="290" y="670" width="60" height="30" as="geometry" />
        </mxCell>
        <mxCell id="Uu99uthvuE6E15-0EjU5-28" style="edgeStyle=orthogonalEdgeStyle;rounded=0;orthogonalLoop=1;jettySize=auto;html=1;entryX=1;entryY=0.5;entryDx=0;entryDy=0;exitX=0.5;exitY=1;exitDx=0;exitDy=0;" edge="1" parent="WIyWlLk6GJQsqaUBKTNV-1" source="Uu99uthvuE6E15-0EjU5-18" target="Uu99uthvuE6E15-0EjU5-26">
          <mxGeometry relative="1" as="geometry" />
        </mxCell>
        <mxCell id="Uu99uthvuE6E15-0EjU5-18" value="User homepage" style="shape=process;whiteSpace=wrap;html=1;backgroundOutline=1;" vertex="1" parent="WIyWlLk6GJQsqaUBKTNV-1">
          <mxGeometry x="440" y="730" width="120" height="60" as="geometry" />
        </mxCell>
        <mxCell id="Uu99uthvuE6E15-0EjU5-27" style="edgeStyle=orthogonalEdgeStyle;rounded=0;orthogonalLoop=1;jettySize=auto;html=1;exitX=0.5;exitY=1;exitDx=0;exitDy=0;entryX=0.5;entryY=0;entryDx=0;entryDy=0;" edge="1" parent="WIyWlLk6GJQsqaUBKTNV-1" source="Uu99uthvuE6E15-0EjU5-19" target="Uu99uthvuE6E15-0EjU5-26">
          <mxGeometry relative="1" as="geometry" />
        </mxCell>
        <mxCell id="Uu99uthvuE6E15-0EjU5-19" value="Admin homepage" style="shape=process;whiteSpace=wrap;html=1;backgroundOutline=1;" vertex="1" parent="WIyWlLk6GJQsqaUBKTNV-1">
          <mxGeometry x="230" y="870" width="120" height="60" as="geometry" />
        </mxCell>
        <mxCell id="Uu99uthvuE6E15-0EjU5-22" value="Yes" style="text;html=1;align=center;verticalAlign=middle;whiteSpace=wrap;rounded=0;" vertex="1" parent="WIyWlLk6GJQsqaUBKTNV-1">
          <mxGeometry x="290" y="810" width="60" height="30" as="geometry" />
        </mxCell>
        <mxCell id="Uu99uthvuE6E15-0EjU5-23" value="No" style="text;html=1;align=center;verticalAlign=middle;whiteSpace=wrap;rounded=0;" vertex="1" parent="WIyWlLk6GJQsqaUBKTNV-1">
          <mxGeometry x="360" y="730" width="60" height="30" as="geometry" />
        </mxCell>
        <mxCell id="Uu99uthvuE6E15-0EjU5-24" style="edgeStyle=orthogonalEdgeStyle;rounded=0;orthogonalLoop=1;jettySize=auto;html=1;entryX=0.703;entryY=1.056;entryDx=0;entryDy=0;entryPerimeter=0;" edge="1" parent="WIyWlLk6GJQsqaUBKTNV-1" source="Uu99uthvuE6E15-0EjU5-13" target="Uu99uthvuE6E15-0EjU5-9">
          <mxGeometry relative="1" as="geometry" />
        </mxCell>
        <mxCell id="Uu99uthvuE6E15-0EjU5-25" value="If not found in database" style="text;html=1;align=center;verticalAlign=middle;whiteSpace=wrap;rounded=0;" vertex="1" parent="WIyWlLk6GJQsqaUBKTNV-1">
          <mxGeometry x="414" y="465" width="60" height="30" as="geometry" />
        </mxCell>
        <mxCell id="Uu99uthvuE6E15-0EjU5-26" value="End" style="ellipse;whiteSpace=wrap;html=1;" vertex="1" parent="WIyWlLk6GJQsqaUBKTNV-1">
          <mxGeometry x="230" y="980" width="120" height="70" as="geometry" />
        </mxCell>
      </root>
    </mxGraphModel>
  </diagram>
</mxfile>
